<?xml version="1.0" standalone="no"?>
<!DOCTYPE svg PUBLIC "-//W3C//DTD SVG 20010904//EN"
 "http://www.w3.org/TR/2001/REC-SVG-20010904/DTD/svg10.dtd">
<svg version="1.0" xmlns="http://www.w3.org/2000/svg"
 width="1668.000000pt" height="1668.000000pt" viewBox="0 0 1668.000000 1668.000000"
 preserveAspectRatio="xMidYMid meet">
<metadata>
Created by potrace 1.11, written by Peter Selinger 2001-2013
</metadata>
<g transform="translate(0.000000,1668.000000) scale(0.100000,-0.100000)"
fill="#000000" stroke="none">
<path d="M3027 16674 c-1 -1 -69 -4 -152 -8 -82 -3 -159 -7 -170 -10 -11 -2
-42 -7 -70 -10 -56 -7 -206 -33 -245 -42 -14 -3 -38 -8 -54 -10 -145 -27 -485
-152 -671 -247 -130 -67 -346 -200 -419 -258 -187 -149 -220 -178 -360 -314
-287 -280 -546 -689 -689 -1090 -36 -100 -76 -224 -82 -254 -2 -9 -11 -47 -20
-86 -9 -38 -18 -79 -21 -90 -15 -76 -19 -101 -30 -180 -3 -27 -8 -59 -10 -70
-21 -112 -20 -595 1 -700 2 -11 7 -40 10 -65 16 -139 64 -346 116 -507 92
-283 201 -509 364 -753 248 -373 580 -689 960 -916 77 -46 348 -184 361 -184
3 0 20 -6 37 -14 75 -32 97 -40 192 -73 160 -54 387 -107 550 -129 27 -3 61
-8 75 -10 109 -15 661 -18 3468 -19 1755 0 3192 -2 3192 -5 0 -3 -327 -332
-727 -732 l-728 -728 -2200 -3 c-1210 -1 -2209 -5 -2220 -8 -11 -4 -41 -9 -66
-13 -544 -79 -1007 -314 -1396 -707 -154 -155 -209 -226 -358 -459 -86 -133
-224 -456 -260 -606 -3 -10 -11 -46 -20 -79 -8 -33 -17 -73 -20 -90 -3 -16
-10 -52 -15 -80 -8 -47 -15 -99 -25 -190 -10 -94 -4 -448 9 -511 2 -12 7 -45
11 -75 11 -90 63 -296 107 -429 78 -230 241 -529 396 -724 171 -216 431 -442
667 -581 179 -105 278 -150 468 -216 60 -21 111 -40 114 -43 3 -3 -58 -70
-137 -148 -256 -257 -394 -428 -522 -648 -70 -121 -78 -138 -143 -295 -48
-119 -125 -389 -138 -490 -29 -216 -30 -573 -3 -721 2 -11 7 -39 11 -64 23
-145 92 -386 147 -510 144 -324 280 -530 497 -755 181 -188 351 -315 581 -437
234 -123 557 -227 791 -254 30 -3 81 -10 114 -14 49 -7 4888 -13 8700 -11 908
0 908 0 1145 41 30 5 71 12 90 15 114 18 394 98 495 140 17 7 55 23 85 35 167
68 383 186 545 298 308 214 626 539 810 827 271 425 429 867 482 1347 10 89
11 516 1 613 -6 64 -30 226 -43 285 -3 14 -8 39 -11 55 -44 247 -194 631 -347
890 -54 90 -181 282 -196 295 -3 3 -33 39 -66 80 -264 331 -640 628 -1032 815
-282 135 -606 233 -898 271 -27 3 -61 8 -75 10 -117 15 -675 18 -3477 19
-1762 0 -3203 2 -3203 5 0 3 303 307 673 676 l672 671 2150 2 c1914 1 2317 3
2382 15 10 2 47 7 83 11 36 4 74 9 85 11 11 3 36 7 55 10 19 3 43 7 52 10 10
3 30 7 45 10 16 3 53 12 83 20 30 9 64 18 74 20 112 21 422 154 566 242 193
118 315 214 465 366 210 213 364 445 493 742 53 121 126 359 148 484 2 14 9
48 14 75 5 28 12 73 15 100 4 28 9 61 12 75 9 46 12 494 3 565 -16 137 -50
323 -70 390 -21 70 -91 282 -100 300 -117 260 -194 394 -326 570 -225 301
-547 567 -887 734 -148 73 -170 82 -328 135 l-97 32 172 175 c94 96 196 203
226 238 30 35 60 69 65 75 65 72 189 261 264 399 85 158 166 383 206 567 1 8
8 33 13 55 6 22 14 63 17 90 3 28 8 64 10 80 9 68 18 184 19 245 2 82 -10 302
-18 355 -4 22 -9 56 -12 75 -56 372 -243 796 -493 1115 -88 112 -308 326 -422
412 -369 277 -809 438 -1281 469 -76 5 -9295 13 -9301 8z m9260 -1786 c137
-29 216 -71 308 -163 85 -84 141 -185 172 -306 3 -13 7 -63 9 -111 4 -128 -37
-262 -114 -368 -14 -19 -361 -371 -771 -782 l-746 -748 -4095 0 c-4214 0
-4137 0 -4301 34 -66 14 -192 61 -274 102 -200 101 -378 263 -492 449 -132
215 -186 405 -187 655 -1 129 3 176 18 258 26 132 107 317 196 450 94 141 290
318 425 387 22 11 42 23 43 28 2 4 11 7 21 7 9 0 21 4 26 9 26 24 234 82 375
104 44 7 9354 2 9387 -5z m729 -4267 c352 -67 600 -385 589 -751 -12 -344
-151 -562 -415 -648 -143 -46 -118 -45 -1480 -48 l-1294 -3 732 732 732 732
538 -1 c366 0 556 -5 598 -13z m-6896 -3230 c0 -3 -193 -199 -429 -436 -236
-236 -537 -538 -668 -670 l-238 -240 -555 1 c-539 0 -557 1 -633 22 -198 56
-345 177 -432 357 -58 119 -74 195 -70 320 4 112 20 177 72 279 91 183 248
307 447 354 75 18 147 19 1293 19 667 0 1213 -3 1213 -6z m7767 -3144 c305
-74 522 -205 718 -432 107 -124 216 -350 255 -528 25 -114 32 -285 17 -417
-30 -272 -186 -572 -396 -760 -148 -133 -285 -212 -461 -268 -95 -30 -121 -36
-215 -50 -65 -9 -9278 -8 -9369 1 -89 10 -188 44 -259 91 -172 114 -280 333
-271 547 4 112 65 261 143 349 13 14 349 355 749 758 l726 732 4146 -3 c3921
-2 4149 -3 4217 -20z"/>
</g>
</svg>
